<svg width="150" height="75" viewBox="0 0 150 75" fill="none" xmlns="http://www.w3.org/2000/svg">
<path d="M119.109 12.6797C118.875 12.8906 118.488 13.3477 118.277 13.6758C118.066 14.0156 117.855 14.2969 117.832 14.2969C117.809 14.2969 117.516 13.8984 117.176 13.4063C116.437 12.3047 116.25 12.3633 116.484 13.6055C116.66 14.5195 116.59 14.8008 116.145 14.8594C116.016 14.8828 115.746 14.7891 115.559 14.6602C115.02 14.2734 114.539 14.332 114.012 14.8711C113.672 15.1992 113.555 15.4219 113.555 15.6914C113.555 16.1484 113.859 16.1836 114.258 15.7617C114.609 15.3867 114.891 15.3867 115.395 15.7617L115.781 16.0664L116.531 15.6445C116.941 15.4102 117.305 15.2695 117.34 15.3164C117.375 15.3633 117.434 15.5859 117.48 15.7852L117.562 16.1719L117.984 15.8789C118.219 15.7148 118.605 15.5508 118.84 15.5156C119.355 15.4336 120.293 14.7422 120.68 14.1797C120.891 13.8633 120.937 13.6758 120.879 13.3594C120.727 12.5625 120.574 12.3633 120.035 12.3281C119.625 12.293 119.484 12.3516 119.109 12.6797ZM119.93 13.793C119.766 14.0508 119.309 14.3789 118.969 14.4727C118.711 14.543 118.699 14.5313 118.828 14.2734C118.91 14.1328 119.133 13.8281 119.332 13.6172C119.66 13.2773 119.719 13.2539 119.871 13.418C120.012 13.5586 120.023 13.6523 119.93 13.793Z" fill="#333333"/>
<path d="M92.8359 12.5977C92.4961 12.75 91.8047 13.5703 91.3359 14.3789C91.2187 14.5898 91.0898 14.7656 91.0547 14.7656C90.9023 14.7656 90.3633 14.0977 90.1289 13.6172C89.9883 13.3359 89.8125 13.1367 89.7304 13.1602C89.5664 13.207 89.5429 14.2031 89.6836 14.6133C89.8125 14.9531 89.414 15.082 89.0156 14.8242C88.8398 14.707 88.5586 14.6484 88.289 14.6719C87.8906 14.707 87.8203 14.7656 87.4453 15.4336L87.0468 16.1719H87.3515C87.5156 16.1719 87.75 16.0664 87.8554 15.9375C88.1015 15.6563 88.3242 15.6445 88.6172 15.9023C88.8164 16.0781 88.875 16.0664 89.625 15.7852C90.0586 15.6094 90.457 15.4688 90.5039 15.4688C90.6797 15.4688 90.8203 16.0664 90.7031 16.3008C90.5976 16.4883 90.6211 16.5234 90.8203 16.5234C90.9726 16.5234 91.125 16.3828 91.2539 16.1133C91.4179 15.7617 91.5117 15.7031 91.8398 15.7031C92.6367 15.7031 93.9961 14.6953 94.1367 13.9922C94.3359 12.9258 93.7031 12.2461 92.8359 12.5977ZM93.2812 13.8398C93.2812 13.9688 93.2344 14.1797 93.164 14.2969C93.0469 14.5195 92.039 14.9648 91.9219 14.8477C91.7929 14.7188 92.2851 13.8867 92.5781 13.7461C93.0234 13.5234 93.2812 13.5586 93.2812 13.8398Z" fill="#333333"/>
<path d="M65.1563 14.3554C65.1563 14.5429 65.4258 14.9882 65.8828 15.5625C66.2695 16.0546 66.7734 16.8281 66.9961 17.2851C67.3359 18 67.3828 18.2109 67.3828 19.0664V20.039H65.7188C63.6797 20.039 63.5508 19.9804 62.6719 18.6445C62.0273 17.6718 61.6758 17.414 61.793 18.0117C62.1094 19.664 62.1328 20.121 61.9336 20.4257C61.7109 20.7656 61.5352 20.7421 61.0078 20.2968C60.2109 19.6523 59.8359 19.7226 59.1914 20.6718C58.8047 21.2343 58.7344 21.5742 58.9805 21.7851C59.0977 21.8789 59.2383 21.7968 59.5898 21.4453L60.0352 20.9882L60.5977 21.2812C61.3711 21.6679 61.8281 21.6445 62.4375 21.1992L62.9297 20.8359L63.8438 21.0351C64.5469 21.1992 65.0742 21.2226 66.2109 21.1757C68.2734 21.082 69.4688 20.6835 72.2461 19.1132C74.2383 18 74.7656 17.7773 74.7656 18.0468C74.7656 18.1171 74.3672 18.6328 73.875 19.1953C72.7148 20.5429 72.2695 21.2226 71.9531 22.1835C71.8125 22.6289 71.5781 23.1093 71.4375 23.25C71.2969 23.4023 70.6992 23.6953 70.0781 23.9062C66.9258 24.9843 63.1289 26.6953 61.5234 27.75C59.7188 28.9335 58.9805 30.1875 59.6602 30.9257C60.0117 31.3007 60.4805 31.4765 61.5703 31.6523C62.4375 31.7812 62.5078 31.7812 62.6602 31.5703C63.0352 31.0546 62.625 30.7734 61.1836 30.5625C60.3281 30.4335 60.2344 30.3984 60.2344 30.164C60.2344 28.9687 66.7266 26.0507 76.9336 22.6757C78.5508 22.1484 80.1914 21.5507 80.5899 21.3398C81.3633 20.9531 81.7149 20.5546 81.3984 20.4375C81.1055 20.3203 80.2031 20.5781 76.2305 21.8906C74.168 22.5703 72.457 23.0976 72.4219 23.0742C72.3281 23.0039 72.4102 22.5 72.6094 21.9023C72.7266 21.5273 73.0781 21.0468 73.7227 20.3203C75.1055 18.7968 75.7031 17.9531 75.7031 17.5195C75.7031 17.0742 75.3984 16.7578 74.9766 16.7578C74.8125 16.7578 73.7109 17.25 72.5273 17.8593C70.3008 18.996 68.7188 19.6875 68.3203 19.6875C68.1094 19.6875 68.0859 19.6054 68.0859 19.0078C68.0742 17.707 67.7695 16.7929 66.8203 15.2343C66.1875 14.2031 65.1563 13.664 65.1563 14.3554Z" fill="#333333"/>
<path d="M54.1758 15.2929C53.707 15.7734 53.2617 16.1718 53.2031 16.1718C53.1445 16.1718 52.9805 15.9492 52.8398 15.6679C52.5352 15.0703 52.2656 14.7539 52.1367 14.8359C52.0781 14.8711 52.0313 15.3164 52.0313 15.8437V16.7812L51.7148 16.6992C51.5273 16.664 51.3047 16.5468 51.1992 16.4531C50.9531 16.2304 50.6602 16.2539 50.0859 16.5117C49.5937 16.7343 49.2422 17.2851 49.3828 17.6367C49.4414 17.8007 49.5352 17.7773 50.0273 17.4961C50.5664 17.2031 50.625 17.1914 50.8242 17.3672C51.2813 17.7773 51.6211 17.8242 52.043 17.5078C52.5938 17.1093 52.7227 17.1445 52.6523 17.6836C52.5586 18.3398 52.875 18.4218 53.2266 17.8242C53.4727 17.3906 53.4844 17.3906 54.1055 17.4375C54.6328 17.4843 54.7969 17.4492 55.1953 17.1797C55.7109 16.8398 56.3672 15.8086 56.3672 15.3398C56.3672 14.8359 55.957 14.414 55.4649 14.414C55.1016 14.414 54.9375 14.5195 54.1758 15.2929ZM55.5469 15.832C55.5469 16.125 55.4766 16.207 55.125 16.3593C54.8906 16.4531 54.5391 16.5234 54.3399 16.5L53.9648 16.4648L54.4219 15.9609C54.75 15.5976 54.9609 15.4687 55.207 15.4687C55.5117 15.4687 55.5469 15.5156 55.5469 15.832Z" fill="#333333"/>
<path d="M104.66 14.8594C104.602 14.9765 104.402 15.4453 104.227 15.8906C103.617 17.4844 104.004 18.6211 105.059 18.3516C105.516 18.2344 106.102 17.6484 106.5 16.8867L106.875 16.1953L106.066 15.6445C105.621 15.3398 105.234 14.9883 105.199 14.8711C105.129 14.5898 104.813 14.5781 104.66 14.8594ZM105.211 16.3828C105.293 16.4414 105.375 16.6406 105.387 16.8281C105.41 17.1445 105.375 17.168 104.977 17.2031C104.508 17.2383 104.496 17.2265 104.602 16.6523C104.684 16.289 104.895 16.1953 105.211 16.3828Z" fill="#333333"/>
<path d="M97.2304 16.5937C97.0547 16.7695 97.5 17.2852 98.3789 17.918C99.5625 18.7852 100.723 20.0156 101.086 20.7891C101.285 21.2109 101.367 21.5977 101.367 22.1016C101.367 22.7461 101.332 22.8398 100.992 23.168C100.781 23.3789 100.172 23.7187 99.6328 23.9531C98.3672 24.4805 97.7109 24.8672 97.3359 25.3242C97.0429 25.6758 96.914 26.3672 97.1484 26.3672C97.207 26.3672 98.4609 25.7227 99.9258 24.9375C103.406 23.0742 106.266 21.7031 107.883 21.1172C111.059 19.957 113.965 18.7031 114.223 18.375C114.34 18.2344 114.34 18.1641 114.211 17.9883C113.941 17.625 111.246 18.5859 106.43 20.7656C104.145 21.7969 102.211 22.6055 102.117 22.5703C102.012 22.5352 101.953 22.3359 101.953 22.0664C101.953 21.3633 101.484 19.9102 101.051 19.2539C100.395 18.2578 99.082 17.2031 97.9218 16.7109C97.4297 16.5 97.3359 16.4883 97.2304 16.5937Z" fill="#333333"/>
<path d="M117.047 17.2383C116.625 17.4726 116.273 19.4297 116.566 19.8867C116.766 20.1914 117.012 21.6328 117.188 23.5781C117.258 24.375 117.656 27.0703 118.066 29.5898C119.449 37.957 120.352 44.4141 120.527 47.1328C120.598 48.1523 120.633 48.2812 120.832 48.2812C121.137 48.2812 121.254 47.9883 121.406 46.8633C121.676 44.7891 121.723 42.9961 121.57 41.4844C121.359 39.4102 120.609 34.6172 119.578 28.7695C118.945 25.1719 118.723 23.6484 118.793 23.4141L118.887 23.0976L119.684 23.8125C120.199 24.2695 120.527 24.4805 120.598 24.4101C120.902 24.1055 120.023 21.832 118.523 19.0547C117.645 17.4375 117.352 17.0625 117.047 17.2383Z" fill="#333333"/>
<path d="M136.547 18.082C136.207 18.6562 135.68 20.0391 135.621 20.5078C135.504 21.375 136.43 21.9141 137.344 21.5039C138.023 21.1992 138.645 20.5078 138.715 19.957C138.762 19.5586 138.727 19.4531 138.41 19.1484C138.211 18.9609 137.824 18.7031 137.543 18.5742C137.168 18.3867 137.039 18.2695 137.016 18.0117C136.969 17.5898 136.828 17.6133 136.547 18.082ZM137.273 19.5703C138.152 19.875 138.188 19.8984 138.047 20.1562C137.859 20.4961 137.18 20.8594 136.699 20.8594C136.301 20.8594 136.266 20.8359 136.324 20.5898C136.371 20.4492 136.43 20.1094 136.477 19.8281C136.523 19.5586 136.57 19.3359 136.582 19.3359C136.594 19.3359 136.898 19.4414 137.273 19.5703Z" fill="#333333"/>
<path d="M90.9023 18.5156C90.3164 19.1953 90.1875 20.414 90.5859 21.2226C90.75 21.539 90.9257 22.3593 91.1132 23.7656C91.6406 27.6562 92.1796 30.9375 93.1523 36.3281C93.4101 37.7109 93.7851 40.0546 93.9843 41.5429C94.3359 44.1093 94.7109 46.1484 94.875 46.4179C95.0273 46.664 95.1679 46.3125 95.3437 45.2812C95.6015 43.6757 95.3203 39.164 94.7461 35.6836L94.5703 34.6289L94.957 34.3007C95.1562 34.125 96.1289 33.5742 97.0898 33.0703C99.1523 32.0156 100.77 30.9609 101.203 30.3984C101.566 29.9179 101.977 29.8828 102.762 30.2343L103.277 30.4687L103.559 30.2109C103.945 29.8476 103.934 29.039 103.523 28.4179C102.656 27.1171 101.625 26.4961 100.84 26.789C100.359 26.9765 99.8906 28.8164 100.125 29.6601C100.242 30.1289 100.242 30.1523 99.8789 30.457C98.9414 31.2304 94.9453 33.5156 94.5117 33.5156C94.4297 33.5156 94.3242 33.4218 94.289 33.3046C94.1484 32.8007 92.789 24.4687 92.8476 24.4218C92.9297 24.3281 93.5859 24.6796 94.2539 25.1601L94.8047 25.5703V25.2656C94.8047 24.5742 93.9257 22.7226 92.25 19.8632C91.125 17.9648 91.2539 18.0937 90.9023 18.5156ZM101.461 28.3828C101.648 28.5703 101.648 29.1796 101.461 29.1796C101.039 29.1679 100.781 29.0156 100.781 28.7812C100.781 28.5 100.98 28.2421 101.191 28.2421C101.262 28.2421 101.379 28.3007 101.461 28.3828ZM102.68 28.6171C102.973 28.8398 102.996 29.2265 102.727 29.2734C102.469 29.332 102.305 29.1211 102.305 28.7343C102.305 28.4414 102.41 28.4062 102.68 28.6171Z" fill="#333333"/>
<path d="M25.957 18.6797C25.8984 18.7031 25.6875 18.7617 25.5117 18.7968C25.0078 18.914 24.2344 19.7109 23.8477 20.4961C23.543 21.1523 23.5313 21.2343 23.6953 21.3984C23.8594 21.5625 23.9414 21.5625 24.5625 21.3867C25.043 21.2578 25.5938 21.2109 26.3672 21.2343C27.7852 21.2812 27.8672 21.4453 26.8125 22.0898C25.6641 22.7812 24.7266 23.4843 24.7734 23.6132C24.8789 23.9765 26.1094 23.6836 27.5508 22.957C28.7813 22.3476 29.9766 20.7422 30.0938 19.5468C30.1406 19.0195 30.1289 18.9843 29.8125 18.8554C29.4844 18.7382 26.1914 18.5859 25.957 18.6797Z" fill="#333333"/>
<path d="M83.8946 18.9492C83.8242 19.1367 83.6953 19.582 83.6016 19.9453C83.4375 20.5547 83.4492 20.6836 83.6602 21.5273C84.0352 23.0273 84.3399 24.6562 84.6797 26.8945C84.8438 28.0547 85.3242 30.8789 85.7461 33.1641C87.1992 41.168 87.4336 42.4805 87.5039 43.2656C87.5742 44.0273 87.5625 44.0625 87.211 44.3906C86.6485 44.918 85.5703 45.4336 83.3438 46.2539C82.2071 46.6641 80.836 47.2383 80.2969 47.5195C77.5196 48.9961 75.375 51.0469 73.0664 54.4336C72.0469 55.9219 70.8047 57.1641 69.8906 57.6094C69.3516 57.8672 69 57.9609 68.3203 57.9844C67.1953 58.043 66.7735 57.7969 66.2696 56.7773C65.9414 56.1328 65.918 55.9805 65.9297 54.9023C65.9414 53.7539 65.9531 53.6953 66.586 52.1484C68.2735 48.0234 69.8086 45.7148 71.1094 45.3516C71.7539 45.1758 71.7539 45.1758 72.2344 45.9023C72.8672 46.8867 73.7813 47.4609 74.7071 47.4609C75.3867 47.4609 75.5156 47.2617 75.4336 46.2656C75.3633 45.3047 75.0117 44.4492 74.4844 43.957C74.0508 43.5469 74.0977 43.3125 74.6836 43.0781C76.8047 42.2109 79.6875 41.1797 79.6875 41.2969C79.6875 41.3672 79.6055 41.7187 79.5117 42.0703C79.418 42.4219 79.336 43.1602 79.336 43.6875C79.336 44.625 79.3477 44.6836 79.6758 44.9883C79.8633 45.1641 80.2383 45.375 80.5196 45.457C80.9883 45.5977 81.0352 45.5859 81.211 45.375C81.3164 45.2461 81.4922 44.7305 81.5977 44.2383C81.7969 43.3711 81.7969 43.3242 81.5977 43.1836C81.4219 43.043 81.3633 43.0781 81.1524 43.4414C80.7891 44.0859 80.5664 44.1797 80.2266 43.8281C79.9688 43.5469 79.9571 43.4883 80.0508 42.7148C80.2266 41.1562 80.3086 41.0391 81.6328 40.3477C82.2656 40.0195 83.0742 39.6562 83.4258 39.5391C83.7656 39.4336 84.2344 39.1758 84.4688 38.9766C85.0899 38.4375 85.7461 36.8086 85.418 36.6211C85.2422 36.5039 80.5664 35.7305 77.3438 35.2734C73.2422 34.6992 71.8008 34.5586 69.1992 34.4883C66.8438 34.4297 66.7031 34.4414 66.0352 34.6875C65.5664 34.875 65.1446 35.1445 64.7461 35.5547C63.9141 36.3867 63.8086 36.9492 64.2071 38.6133C64.418 39.4687 64.4883 39.5977 64.9922 40.0547C66.1524 41.1094 67.8985 42.1758 69.5977 42.8672L70.2305 43.125L69.7149 43.5C65.3321 46.6523 62.6602 48.8672 60.6328 51.0352C55.6641 56.3437 52.1485 59.0508 49.7578 59.4258C48.7617 59.5898 48.5039 59.5195 47.8711 58.9336C46.6172 57.7734 46.4297 55.4297 47.3672 52.5586C47.7774 51.293 48.8438 49.0195 49.3125 48.4219C50.25 47.2383 50.9063 45.5391 51.0703 43.8633C51.2227 42.3398 51.0586 40.9805 49.6875 32.7773C49.0313 28.8516 48.5274 25.6172 48.5625 25.582C48.5977 25.5469 48.9844 25.8398 49.4297 26.2383C50.1328 26.8477 50.2617 26.9297 50.3906 26.7773C50.5899 26.5312 50.3906 26.0156 49.2891 24.0234C47.8125 21.3047 46.9219 19.8633 46.7461 19.8633C46.5469 19.8633 46.0664 21.2109 46.0547 21.7851C46.0547 21.9961 46.207 22.9219 46.3945 23.8359C46.582 24.7383 47.0274 27.1992 47.3906 29.2969C47.7422 31.3945 48.3281 34.5586 48.6797 36.3281C49.8399 42.1523 50.1211 44.2734 49.7696 44.8008C49.4414 45.3047 46.8516 46.5 45.0117 46.9922C43.875 47.2969 42.0703 48.1875 40.7461 49.0781C38.6953 50.4609 37.8164 51.2344 36.3047 53.0391C33.668 56.1914 31.875 57.9961 30.8906 58.5C30.5274 58.6875 30.2578 58.7227 29.5781 58.6875C28.5703 58.6406 28.2188 58.4297 27.7734 57.6445C27.5039 57.1758 27.4805 57.0117 27.4922 55.7227C27.4922 54.5039 27.5391 54.1758 27.8203 53.3203C28.5586 51.0586 30.1875 48.1523 31.9336 45.9961C32.918 44.7656 33.4453 44.4023 35.2969 43.6172C38.2383 42.375 40.6289 41.7305 43.125 41.4961C44.2852 41.3789 44.6485 41.3906 45.7383 41.5781L47.0156 41.7891L47.3555 41.3789C47.8242 40.8047 48.4571 39.5742 48.375 39.3633C48.3281 39.2461 47.8594 39.1289 46.875 38.9883C45.3867 38.7773 42.2344 38.1562 40.6055 37.7578C40.0899 37.6289 38.9883 37.2539 38.1563 36.9258C36.0117 36.0586 33.0469 35.0859 31.875 34.8516C31.0899 34.6992 30.5039 34.6641 29.0859 34.7227C26.8711 34.8047 26.3789 34.9805 25.875 35.918C25.5586 36.4922 25.2774 37.5 25.3828 37.6172C25.418 37.6523 26.5313 37.7578 27.8672 37.8633L30.293 38.0508L30.5859 37.7812L30.8789 37.5234L34.3125 38.707C37.5469 39.8086 37.9922 40.0195 37.6055 40.2539C37.3477 40.418 32.5781 41.9883 31.1719 42.375C29.2617 42.8906 28.6875 42.9023 27.9375 42.3867C27.2695 41.9297 26.8594 41.4023 26.1445 40.0781C25.8516 39.5508 25.418 38.8945 25.1602 38.6016C24.75 38.1328 24.6563 38.0859 24.1641 38.0859C23.4141 38.0859 22.6406 38.4727 21.4805 39.4219C20.0742 40.5469 19.7227 40.9687 19.2188 42.0117C18.6094 43.2656 18.3867 44.4609 18.4102 46.207L18.4219 47.6016L18.0938 47.8008C17.9063 47.918 17.0391 48.3867 16.1719 48.8555C15.3047 49.3242 14.1797 50.0039 13.6641 50.3672C12.3984 51.2812 10.3594 53.25 9.22266 54.668C6.49219 58.043 4.1836 59.8242 2.82422 59.5781C1.86329 59.4023 1.28907 58.8281 0.87891 57.6094C0.679691 57 0.656254 56.7187 0.714847 55.7227C0.796879 54.3047 1.125 53.3906 2.34375 51.1641C2.78907 50.3437 3.16407 49.5937 3.16407 49.5C3.16407 49.2187 4.08985 48.3047 4.7461 47.9297C5.3086 47.6016 5.39063 47.5078 5.89454 46.4297C6.52735 45.0937 6.79688 44.0742 6.79688 43.0312C6.79688 42.0234 6.60938 42.1172 6.12891 43.3711C5.69532 44.4844 5.17969 45.1875 4.60547 45.4219C4.25391 45.5742 4.17188 45.5625 3.76172 45.3516C2.8125 44.8711 2.34375 43.8398 2.26172 42C2.14454 39.7734 2.90625 37.3711 5.17969 32.7656C6.65626 29.7773 6.96094 29.0625 6.71485 29.0625C6.04688 29.0859 2.97657 34.6172 2.02735 37.5C1.24219 39.8555 1.11328 40.6523 1.11328 43.0664C1.11328 44.9883 1.13672 45.2344 1.38282 45.8906C1.53516 46.2773 1.94532 46.9922 2.3086 47.4727L2.95313 48.3281L1.95704 50.332C1.40625 51.4336 0.750004 52.9102 0.50391 53.6133C0.0820347 54.8437 0.0585972 54.9609 0.070316 56.4258C0.070316 57.7266 0.105472 58.043 0.328129 58.6172C0.656254 59.4492 1.48828 60.2344 2.57813 60.75C3.29297 61.0898 3.42188 61.1133 4.57032 61.1016C5.90625 61.0898 6.69141 60.8672 7.73438 60.2227C8.05079 60.0234 9.2461 58.793 10.6641 57.2227C11.9883 55.7578 13.3477 54.2812 13.6992 53.9414C14.7774 52.8867 16.3008 51.9727 18.2227 51.2109C19.0313 50.8945 19.2305 50.8594 20.4844 50.8594C21.6445 50.8594 22.1602 50.9297 23.6602 51.2695C25.7344 51.75 25.8516 51.75 26.0156 51.4453C26.2383 51.0234 26.2969 49.8984 26.0977 49.4414C25.7695 48.6562 24.5859 48.0117 22.793 47.6367C22.2774 47.5312 21.6445 47.3203 21.3867 47.168C20.9063 46.8867 19.7109 45.7031 19.4766 45.293C19.3477 45.0352 19.5469 44.543 20.2031 43.5C20.5547 42.9492 22.0781 41.6016 22.6875 41.3086C23.4727 40.9453 24.0469 41.332 24.4805 42.5273C25.0078 43.9687 26.0391 45.1172 27.1524 45.5156C28.0547 45.832 28.7227 45.8555 29.8711 45.5859C30.4688 45.4453 30.9727 45.3516 30.9961 45.375C31.0313 45.3984 30.5391 46.2891 29.918 47.3555C28.6875 49.4531 27.2109 52.3359 26.8828 53.2617C26.7305 53.6953 26.6602 54.3164 26.625 55.6172C26.5781 57.3633 26.5899 57.4102 26.8945 58.043C27.3164 58.8984 28.0313 59.6133 28.8281 59.9766C29.7774 60.4219 31.4766 60.4805 32.4961 60.1172C32.8945 59.9648 33.4336 59.7187 33.6914 59.5547C34.418 59.0977 35.7188 57.7148 36.6797 56.3672C38.4727 53.8359 40.5 52.0195 42.6914 50.9766C44.3438 50.1914 46.6289 49.2773 47.332 49.1133C47.7774 49.0195 47.8125 49.0312 47.8125 49.2656C47.8125 49.3945 47.4961 50.1328 47.1211 50.8828C45.6211 53.8711 45.1992 56.0625 45.6914 58.418C46.0899 60.3633 46.8047 61.5352 47.9414 62.168C48.5391 62.4961 48.6446 62.5195 49.9219 62.5195C51.1289 62.5195 51.3399 62.4844 51.9141 62.2148C53.4961 61.4648 54.5508 60.5273 59.6485 55.418C64.1836 50.8711 67.3008 47.9297 67.4414 48.0703C67.4766 48.1055 67.1133 48.9375 66.6328 49.9336C66.1524 50.9297 65.625 52.1367 65.4492 52.6289C65.1563 53.4727 65.1446 53.6133 65.1797 55.2656C65.2149 56.9883 65.2266 57.0234 65.6133 57.8086C66.1406 58.8516 67.0196 59.6836 67.8516 59.9297C68.9766 60.2695 70.5235 60.1055 71.3555 59.5781C72.6914 58.7227 73.7227 57.6328 74.9414 55.7227C76.4531 53.3789 78.3047 51.5859 80.461 50.3906C81.0821 50.0391 82.5 49.4062 83.6016 48.9844C86.086 48.0234 86.6836 47.707 87.4102 46.9336C88.0782 46.2305 88.4063 45.6328 88.6524 44.6836C88.8399 43.9922 88.8985 42.4805 88.7813 41.5781C88.3594 38.4609 87.6211 33.8906 86.4375 27.2461C86.1446 25.6406 85.9336 24.3047 85.9571 24.2812C85.9688 24.2578 86.2617 24.5391 86.6016 24.8906C87.2461 25.582 87.6563 25.7344 87.6563 25.3008C87.6563 24.9609 87.0352 23.4375 86.461 22.3828C85.7344 21.0234 84.2344 18.6328 84.1172 18.6328C84.0586 18.6328 83.9649 18.7734 83.8946 18.9492ZM72.8906 37.6172C75.9492 37.8984 79.4766 38.3086 79.5586 38.3906C79.6758 38.5078 79.336 38.6719 77.7305 39.3047C76.8164 39.6562 75.1289 40.3594 73.9805 40.8516C72.668 41.4258 71.8594 41.707 71.7774 41.6484C71.6953 41.5898 71.2266 41.2383 70.7227 40.8516C69.7266 40.1016 67.9336 38.9883 66.5274 38.2617C64.9571 37.4414 65.3321 37.2422 68.2617 37.3242C69.4219 37.3477 71.5078 37.4883 72.8906 37.6172Z" fill="#333333"/>
<path d="M53.5664 19.6055C53.4961 19.6992 53.332 20.2265 53.2031 20.7773L52.957 21.7969L53.2031 22.5937C53.3437 23.0273 53.4961 23.8828 53.5547 24.4922C53.6016 25.1016 53.7891 26.3906 53.9531 27.3633C54.6211 31.3242 55.2656 35.8594 55.9453 41.6602C56.7891 48.668 56.7891 48.668 57.0937 48.7266C57.3398 48.7734 57.3867 48.6211 57.6562 46.7461C58.1133 43.6523 58.0664 42.5977 57.2461 37.9102C56.9883 36.4102 55.5117 26.6836 55.3594 25.4297L55.3008 24.9023L55.9219 25.582C56.6133 26.332 57.0703 26.4844 57.0703 25.957C57.0703 25.5351 56.4375 23.8828 55.8867 22.8633C55.4297 22.043 53.8008 19.4531 53.7305 19.4531C53.7187 19.4531 53.6484 19.5234 53.5664 19.6055Z" fill="#333333"/>
<path d="M42.1289 20.8008C40.9922 21.0937 36.6562 22.582 32.2266 24.1758C19.4414 28.7929 8.89453 33.7031 9.32813 34.8398C9.43359 35.1211 9.51563 35.0976 10.5234 34.5234C13.4766 32.8476 18.9375 30.3398 24.2344 28.2304C28.5469 26.5078 37.2305 23.3906 40.5352 22.3828C41.7188 22.0195 42.75 21.5859 43.1367 21.2929C43.3125 21.164 43.5938 20.7187 43.5938 20.5781C43.5938 20.4492 43.1953 20.5195 42.1289 20.8008Z" fill="#333333"/>
<path d="M17.2734 22.1484C16.5469 22.4414 16.0781 23.6836 15.6445 26.5195L15.5742 26.9765L14.8828 25.9218C13.7461 24.1992 12.7266 23.4961 11.7188 23.7422C11.332 23.8476 11.3086 23.8828 11.2734 24.3867C11.25 24.832 11.2969 24.9961 11.543 25.289C11.9766 25.8047 12.5977 25.9804 13.1719 25.7343C13.418 25.6289 13.6406 25.5468 13.6641 25.5468C13.8281 25.5468 14.7774 27.2343 14.8828 27.7031C15.0586 28.4765 15.3281 28.9687 15.5625 28.9218C15.7031 28.8984 15.8086 28.5351 16.0195 27.3047C16.4414 24.7968 17.0274 23.2031 17.5078 23.2031C17.5899 23.2031 17.7774 23.332 17.9297 23.4961C18.2461 23.8242 18.5391 23.8711 18.75 23.6133C18.9609 23.3554 18.7031 22.8164 18.1758 22.3828C17.7305 22.0078 17.6602 21.9844 17.2734 22.1484Z" fill="#333333"/>
<path d="M126.727 23.1328C126.106 23.4023 125.52 24.0117 125.379 24.5273C125.25 25.0078 125.25 25.0195 125.742 25.4648C126.223 25.9218 126.234 25.9335 126.106 26.4023C126.047 26.6718 126.012 26.9062 126.035 26.9296C126.141 27.0468 126.703 26.8125 127.055 26.5078C127.266 26.332 127.746 26.0039 128.121 25.7812C129.141 25.1718 129.703 24.6679 129.527 24.4804C129.422 24.375 129.176 24.4101 128.379 24.6562C127.723 24.8671 127.172 24.9609 126.82 24.9375C126.316 24.9023 126.27 24.8789 126.234 24.5859C126.211 24.3632 126.27 24.2343 126.445 24.1406C126.668 24.0234 126.762 24.0468 127.09 24.375C127.629 24.9023 127.852 24.7968 127.852 24.0234C127.852 23.5898 127.793 23.3789 127.617 23.2031C127.348 22.9335 127.219 22.9218 126.727 23.1328Z" fill="#333333"/>
<path d="M139.852 23.6016C139.148 23.9063 138.621 24.9609 138.375 26.5547C138.305 27.0352 138.199 27.4219 138.164 27.4219C138.117 27.4219 138.012 27.1992 137.93 26.918C137.461 25.3242 136.43 24.2578 135.352 24.2578C134.742 24.2578 134.531 24.4453 134.531 24.9727C134.531 25.3594 134.602 25.5234 134.895 25.793C135.34 26.2148 136.113 26.4727 136.312 26.2734C136.734 25.8516 136.945 26.1914 137.824 28.7344C137.977 29.1797 138.141 29.5312 138.176 29.5312C138.258 29.5312 138.82 27.3281 138.926 26.6016C139.008 25.9102 139.465 24.9844 139.922 24.5508L140.285 24.1992L140.613 24.5977C141.023 25.1016 141.328 25.0313 141.328 24.457C141.328 23.9766 140.883 23.4375 140.484 23.4375C140.332 23.4492 140.051 23.5195 139.852 23.6016Z" fill="#333333"/>
<path d="M111.609 24.6562C111.551 24.8086 111.773 25.4883 112.324 26.8594C112.395 27.0351 112.348 27.0703 112.078 27.0703C111.598 27.0703 111.527 26.9883 111.094 26.1328C110.133 24.2226 109.781 24.2695 110.262 26.2617C110.496 27.2695 110.437 27.5625 109.957 27.8086C109.512 28.0312 109.137 27.8789 108.937 27.3984C108.785 27.0234 108.809 26.5312 109.043 25.2773C109.113 24.9023 109.102 24.8437 108.914 24.8437C108.152 24.8555 107.227 25.6992 107.227 26.3789C107.227 26.8359 107.496 27.0117 107.754 26.7187C107.871 26.5898 108.012 26.4844 108.07 26.4844C108.117 26.4844 108.164 26.8594 108.164 27.3164C108.164 28.3594 108.398 28.9101 108.961 29.1445C109.5 29.3672 109.98 29.2031 110.73 28.5234L111.316 27.9961L111.562 28.2422C111.715 28.3945 111.949 28.4766 112.242 28.4766C112.781 28.4766 112.922 28.3828 113.074 27.9726C113.367 27.1992 113.098 26.039 112.418 25.1484C111.926 24.5039 111.715 24.375 111.609 24.6562Z" fill="#333333"/>
<path d="M30.3047 27.1289C29.5781 28.0195 29.2734 28.8281 29.2148 30.0469C29.1562 31.3359 29.2617 31.582 30.0352 31.9687L30.5977 32.2617L30.8906 31.9805C31.3711 31.5352 31.6524 30.8672 31.6172 30.3164C31.5703 29.625 31.3008 29.6719 31.0547 30.4102C30.8203 31.1133 30.4805 31.2422 30.1641 30.7617C29.8945 30.3398 29.9883 29.543 30.5156 28.0078C30.75 27.3398 30.9375 26.7422 30.9375 26.6953C30.9375 26.4727 30.7031 26.6367 30.3047 27.1289Z" fill="#333333"/>
<path d="M80.0039 27.3164C79.9687 27.457 80.1094 28.0781 80.332 28.7344C80.7539 29.9648 80.7305 30.1289 80.1328 29.8945C79.9101 29.8125 79.7695 29.5898 79.5234 28.9219C79.3594 28.4531 79.1133 27.9375 78.9844 27.7734C78.7851 27.5039 78.75 27.4922 78.5742 27.668C78.3984 27.8438 78.4101 27.9492 78.668 28.9688C78.9726 30.1758 78.9492 30.3984 78.4453 30.5859C77.8711 30.8086 77.6719 30.4805 77.5312 29.1328C77.4492 28.3477 77.2969 28.0078 77.0391 28.0078C76.582 28.0078 76.1836 29.0625 76.582 29.2266C76.6992 29.2617 76.7578 29.4492 76.7578 29.7656C76.7578 30.3164 77.1094 31.0781 77.4844 31.3359C77.625 31.4414 77.918 31.5234 78.1289 31.5234C78.6211 31.5234 79.3125 31.1953 79.4062 30.9141C79.4766 30.6563 79.5586 30.6563 79.8516 30.8789C80.1562 31.1016 80.7422 31.1016 81.0586 30.8789C81.5039 30.5625 81.6094 29.8828 81.3398 29.0156C81.0351 28.0313 80.6836 27.3398 80.4023 27.1875C80.0976 27.0234 80.0742 27.0352 80.0039 27.3164Z" fill="#333333"/>
<path d="M71.9414 27.5977C71.3906 27.8906 70.875 29.0625 70.5469 30.7266C70.4765 31.1016 70.3711 31.4062 70.3125 31.4062C70.2656 31.4062 70.043 31.125 69.832 30.7969C68.9883 29.4844 68.2734 28.9102 67.4883 28.9219C66.8906 28.9336 66.6797 29.1094 66.6797 29.5898C66.6797 30.1406 67.1015 30.4336 68.0039 30.5391C68.6484 30.6094 68.7656 30.668 69.2226 31.1367C69.5039 31.4297 69.7617 31.8047 69.7969 31.9687C69.9961 32.8945 70.2656 33.5742 70.4414 33.6094C70.5937 33.6328 70.664 33.4805 70.7812 32.8477C70.9687 31.7812 71.4492 29.8477 71.625 29.4492C71.707 29.2617 71.8594 28.9805 71.9883 28.8047L72.1992 28.4766L72.6562 28.7109C72.914 28.8398 73.1719 28.9453 73.2305 28.9453C73.4297 28.9453 73.5 28.4883 73.3594 28.0664C73.1484 27.4336 72.5859 27.2461 71.9414 27.5977Z" fill="#333333"/>
<path d="M41.4961 27.8203C41.3906 27.9492 41.4609 28.2187 41.8477 29.039C42.3633 30.164 42.375 30.4687 41.918 30.4687C41.5547 30.4687 41.4258 30.3164 40.7813 29.0742C40.3828 28.3242 40.1836 28.0547 39.9844 28.0312C39.668 27.9843 39.668 27.9961 39.9727 29.5664C40.3242 31.3007 40.1602 31.6289 39.1524 31.2773L38.7891 31.1484V30.0117C38.7891 28.9922 38.7656 28.875 38.543 28.7343C38.0508 28.4297 37.3711 28.9804 37.2188 29.8007C37.1484 30.1757 37.207 30.1875 37.7109 29.8828L38.0859 29.6484V30.5859C38.0859 31.664 38.2266 32.039 38.6836 32.2382C39.3633 32.5078 40.6055 32.1093 40.7344 31.5703C40.8047 31.3125 40.8633 31.2773 41.1211 31.3476C41.2852 31.3828 41.7188 31.4531 42.082 31.4882C42.6797 31.5468 42.7617 31.5234 42.9375 31.2773C43.207 30.8906 43.1836 29.8359 42.8789 29.1914C42.6328 28.6406 41.8945 27.6562 41.7305 27.6562C41.6719 27.6562 41.5664 27.7265 41.4961 27.8203Z" fill="#333333"/>
<path d="M129.551 29.789C128.953 30.1406 128.531 31.1132 128.227 32.8711L128.016 34.0195L127.512 33.2343C127.23 32.8125 126.691 32.1679 126.316 31.8164C125.531 31.0898 124.91 30.8554 124.23 31.0195C123.809 31.125 123.809 31.125 123.809 31.7461C123.82 32.2734 123.867 32.414 124.125 32.6367C124.289 32.7773 124.629 32.9414 124.863 32.9765C125.215 33.0468 125.355 33.0117 125.566 32.8125L125.824 32.5664L126.363 33.164C126.879 33.7265 127.172 34.2421 127.723 35.5312C128.098 36.4336 128.273 36.2812 128.437 34.8867C128.602 33.375 129.07 31.4414 129.363 31.0546C129.656 30.6562 129.879 30.6328 130.312 30.9609C130.676 31.2304 130.687 31.2304 130.852 31.0078C131.074 30.7031 131.074 30.6914 130.664 30.1406C130.289 29.625 129.996 29.5312 129.551 29.789Z" fill="#333333"/>
<path d="M145.008 31.125C144.879 31.3125 144.785 31.7578 144.75 32.332C144.703 33.1992 144.715 33.2695 145.172 34.1601C145.43 34.6758 145.793 35.5429 145.992 36.0937C146.191 36.6445 146.625 37.6992 146.953 38.4375C147.855 40.4062 148.582 42.2695 148.664 42.7734L148.734 43.2187L147.984 43.3008C146.859 43.4179 145.676 43.0312 144.891 42.2812C144.562 41.9765 144.527 41.8828 144.574 41.4375C144.703 40.3945 143.941 40.7344 143.555 41.8945C142.863 43.9804 141.633 44.5547 139.805 43.6406L138.961 43.207L139.043 42.2929C139.078 41.7773 139.09 41.3672 139.043 41.3672C138.75 41.3672 138.234 41.8242 137.871 42.4219C137.168 43.5703 136.547 44.2851 135.844 44.7422C135.211 45.1406 135.105 45.164 134.051 45.2109C133.09 45.2578 132.867 45.2226 132.457 45.0117C131.766 44.6719 131.203 43.9453 130.77 42.8554C130.324 41.7304 130.16 41.4375 129.68 40.9219C129.375 40.5937 129.258 40.5469 128.73 40.5469C127.441 40.5469 126.199 41.5195 124.852 43.5937C123.738 45.3281 123.352 47.039 123.668 48.8789L123.762 49.4179L123.152 49.6289C122.051 49.9804 120.457 50.8359 118.395 52.1719C117.516 52.7461 117.141 53.0976 116.285 54.1172C114.199 56.6367 112.02 58.6875 110.918 59.1914C109.746 59.7305 108.246 59.332 107.695 58.3476C107.426 57.8789 107.402 57.7148 107.414 56.4844L107.426 55.1367L108.023 53.8125C108.727 52.2422 109.102 51.6328 110.227 50.2031C111.539 48.5508 111.598 48.5156 112.91 48.5156C114.785 48.5156 115.957 47.9062 116.59 46.6172C117.527 44.707 117 41.6836 115.043 37.7344C114.586 36.7969 114.187 36 114.164 35.9414C114.141 35.8945 114.258 35.9062 114.434 35.9765C115.277 36.2929 115.395 36.0117 114.855 34.9336C114.258 33.7617 112.43 31.9922 112.184 32.3672C112.02 32.6367 111.996 34.8164 112.148 35.4961C112.23 35.8476 112.605 36.832 112.992 37.6758C114.527 40.9922 115.641 43.6992 115.746 44.3203L115.816 44.7656L115.137 45.0586C114.328 45.4219 113.238 45.5859 112.547 45.457C110.754 45.1172 110.027 43.9687 109.16 40.1367C108.316 36.4219 107.555 34.2304 106.957 33.8086C106.523 33.5039 106.418 33.8672 106.406 35.5898C106.406 36.914 106.453 37.2656 106.699 38.0508C107.098 39.3281 107.637 41.414 107.789 42.2461C108.082 43.8633 108.082 43.8515 107.566 44.6484C106.852 45.7617 105.844 46.6992 104.918 47.1445C104.191 47.4844 104.027 47.5195 102.949 47.5195C101.859 47.5195 101.73 47.4961 101.133 47.1562C100.418 46.7578 99.832 46.0078 99.5859 45.1992C99.3281 44.3672 99.4101 42.0117 99.7617 39.9609C99.9375 38.9648 100.078 37.875 100.078 37.5351V36.914H99.6445C99.3047 36.914 99.1406 37.0078 98.8007 37.3594C98.0156 38.1797 97.0195 40.6992 96.6211 42.8554C95.9414 46.5586 95.1211 48.2812 94.0781 48.2812C93.164 48.2812 92.2851 47.1914 91.9101 45.5976C91.7578 44.9414 91.6992 44.2031 91.6992 42.8086C91.6992 41.7539 91.664 40.8984 91.6289 40.8984C91.3359 40.8984 91.0195 42.082 90.8789 43.7344C90.8086 44.5547 90.8437 44.789 91.2304 46.1953C91.7226 47.9648 91.7343 48 92.3671 48.8437C93.0468 49.7695 93.6562 50.1562 94.3711 50.1562C94.9101 50.1562 95.0039 50.1211 95.4492 49.6406C96.082 48.9961 96.6328 47.6601 96.9257 46.1133C97.6054 42.5976 98.0976 40.664 98.3906 40.4179C98.6015 40.2422 98.6015 40.2187 98.3672 42.0469C98.2148 43.289 98.2031 43.7929 98.3203 45.1172C98.4375 46.5 98.4961 46.8047 98.8359 47.5195C99.3047 48.5156 100.266 49.5937 101.062 50.0156C101.602 50.2969 101.789 50.332 102.844 50.332C103.957 50.332 104.051 50.3086 104.894 49.8984C106.09 49.3008 107.039 48.5156 107.578 47.6719C108.094 46.8867 108.504 45.8789 108.598 45.1992C108.645 44.9414 108.727 44.7656 108.82 44.7656C108.914 44.7656 108.984 44.8359 108.984 44.9297C108.984 45.2461 109.922 46.9687 110.391 47.4844C110.648 47.789 110.859 48.0703 110.859 48.1289C110.859 48.1758 110.449 48.7031 109.934 49.3008C107.93 51.6328 106.664 54.2578 106.547 56.2734C106.488 57.3633 106.699 58.2656 107.285 59.4258C107.625 60.082 108.68 60.8437 109.664 61.125C110.754 61.4414 111.715 61.3125 113.062 60.6445C114.094 60.1289 114.305 59.9648 115.371 58.8398C120.504 53.3672 123.211 51.8203 126.352 52.5586C126.762 52.6523 127.746 52.9219 128.555 53.1445L130.02 53.5547L130.23 53.3086C130.418 53.0742 130.488 52.4414 130.43 51.5039C130.406 51.0586 130.043 50.4609 129.609 50.1562C129.422 50.0273 128.66 49.664 127.91 49.3476C125.789 48.4453 124.805 47.7539 124.805 47.1914C124.816 46.7226 125.227 45.9961 125.93 45.2344C127.395 43.6523 128.215 43.2539 128.754 43.8515C128.883 44.0039 129.211 44.5898 129.492 45.164C130.09 46.3945 131.027 47.4609 131.883 47.8945C132.68 48.3047 134.016 48.3047 135.059 47.9179C135.844 47.625 136.734 46.8633 137.191 46.0898C137.355 45.8086 137.531 45.5859 137.602 45.5859C137.742 45.5859 138.246 45.9375 139.102 46.6172L139.746 47.1445L140.625 47.0742C141.117 47.0508 141.691 46.9453 141.914 46.8515C142.488 46.6054 143.051 45.9961 143.273 45.3633C143.379 45.0703 143.496 44.7304 143.531 44.625C143.602 44.4375 143.684 44.4726 144.141 44.8359C144.422 45.0586 145.102 45.4687 145.652 45.7383C146.906 46.3594 147.656 46.4062 148.512 45.9023C149.602 45.2578 150 44.3672 150 42.5156C150 41.5078 149.941 41.1914 149.578 40.0429C149.344 39.3281 148.875 38.1679 148.535 37.4883C147.832 36.1054 147.305 34.8515 147.305 34.5937C147.305 34.4883 147.375 34.4531 147.516 34.5117C147.621 34.5586 147.891 34.6172 148.102 34.6523C148.594 34.7344 148.594 34.5586 148.078 33.8086C147.656 33.164 145.465 30.8203 145.301 30.8203C145.242 30.8203 145.113 30.9609 145.008 31.125Z" fill="#333333"/>
<path d="M21.6563 31.2422C21.4102 31.5117 21.1055 32.2265 20.6953 33.4921C20.3555 34.5117 20.3437 35.1093 20.6836 35.3906C21 35.6601 21.7266 35.6601 22.3008 35.414C23.0156 35.0976 23.5898 34.1601 23.5078 33.4687C23.4492 32.9648 22.9688 32.3906 22.3242 32.039C22.0078 31.875 21.9141 31.7461 21.8906 31.4297C21.8555 31.0429 21.8438 31.0312 21.6563 31.2422ZM22.418 33.2343C23.2266 33.7734 22.8281 34.3945 21.5273 34.6171C21.1758 34.6875 21.0703 34.664 21.0117 34.5C20.9297 34.2773 21.1523 33.3164 21.3516 33.082C21.5391 32.8476 21.9375 32.9062 22.418 33.2343Z" fill="#333333"/>
<path d="M137.73 32.039C136.781 32.2148 136.207 32.3789 136.055 32.5195C135.703 32.8359 134.953 34.4062 135.047 34.6406C135.105 34.7812 135.211 34.8164 135.504 34.7695C135.703 34.7343 136.453 34.6406 137.145 34.5586C138.703 34.3828 138.867 34.4765 138.082 35.0976C137.203 35.8007 136.172 36.832 136.172 37.0078C136.172 37.2421 136.734 37.1132 137.648 36.6914C139.266 35.9296 140.285 34.9804 140.988 33.5625C141.445 32.6367 141.422 32.2382 140.859 31.9687C140.32 31.6992 139.523 31.7109 137.73 32.039Z" fill="#333333"/>
<path d="M60.6445 33.3164C60.4102 33.6914 60.0234 35.4609 59.9297 36.6562L59.8477 37.6289L60.3984 38.1445C60.6914 38.4375 61.043 38.6719 61.1602 38.6719C61.4297 38.6719 61.6992 38.3789 61.9336 37.8164C62.1094 37.3828 62.1797 36.4453 62.0273 36.4453C61.9688 36.4453 61.7813 36.6914 61.5938 36.9844L61.2539 37.5234L60.8906 37.1602L60.5273 36.7969L60.7969 35.2383C61.0781 33.5391 61.1133 33.0469 60.9375 33.0469C60.8789 33.0469 60.75 33.1758 60.6445 33.3164Z" fill="#333333"/>
<path d="M132.328 35.7773C131.754 36.7148 131.473 37.5703 131.402 38.496C131.355 39.1992 131.391 39.3984 131.625 39.832C131.777 40.1249 132.035 40.4531 132.199 40.582C132.492 40.7929 132.527 40.7929 132.867 40.6171C133.09 40.4999 133.336 40.207 133.523 39.8203C134.191 38.4492 133.992 37.9101 133.148 38.8124L132.68 39.3164L132.375 39.0351C131.953 38.6367 131.965 37.8515 132.422 36.4921C132.621 35.9179 132.762 35.3789 132.75 35.2968C132.727 35.2031 132.539 35.4257 132.328 35.7773Z" fill="#333333"/>
<path d="M14.7539 37.3477C13.9688 38.0625 13.793 38.5312 13.7344 40.043C13.6758 41.5664 13.5586 41.6953 13.1367 40.7227C12.6094 39.4922 11.5195 38.5664 10.582 38.5547C9.90235 38.5547 9.64454 39.1289 10.0195 39.8438C10.1953 40.1836 10.2422 40.1953 10.9688 40.1953C11.3906 40.1953 11.8359 40.2539 11.9649 40.3125C12.3281 40.5117 13.1484 41.7188 13.2656 42.2344C13.418 42.9492 13.6055 43.3594 13.7813 43.3594C14.0156 43.3594 14.0391 43.2891 14.1797 41.5547C14.332 39.668 14.6602 38.2734 15.0234 37.8867L15.2813 37.6055L15.5039 38.0273C15.6211 38.2617 15.7969 38.4844 15.8906 38.5195C16.3008 38.6719 16.582 37.9102 16.2539 37.5C16.0547 37.2422 15.5625 36.9141 15.3867 36.9141C15.3047 36.9141 15.0234 37.1133 14.7539 37.3477Z" fill="#333333"/>
<path d="M61.0078 41.5898C60.6797 41.9414 60.1875 43.1718 60.1875 43.6406C60.1758 44.0859 60.1992 44.1211 61.0781 44.7187C61.5703 45.0585 62.1797 45.3984 62.4258 45.457C63.0117 45.621 63.1406 45.4687 63.6211 44.039C63.9492 43.0664 63.9609 42.9375 63.8086 42.7031C63.5742 42.3398 62.9648 41.9882 62.0156 41.6718C61.2422 41.4023 61.1836 41.4023 61.0078 41.5898Z" fill="#333333"/>
<path d="M35.8359 45.3164C35.4961 45.3633 34.9219 45.9492 34.9219 46.2422C34.9219 46.4883 35.2617 46.582 35.5195 46.4297C35.6367 46.3476 35.8477 46.289 35.9883 46.289C36.1758 46.289 36.2109 46.3359 36.1523 46.5351C35.6836 48.0117 35.625 48.3281 35.8008 48.5977C35.9531 48.8203 36.082 48.8672 36.5391 48.8672C37.3711 48.8672 37.9453 48.668 38.7422 48.0937C39.6328 47.4609 40.2422 46.8047 40.5703 46.1133C40.7695 45.7148 40.793 45.5508 40.6875 45.4453C40.5938 45.3515 40.3477 45.539 39.6914 46.207C38.5313 47.3906 37.8516 47.8125 37.1367 47.8125H36.5859L36.8672 46.8984C37.3711 45.2812 37.2539 45.1054 35.8359 45.3164Z" fill="#333333"/>
<path d="M9.70313 47.5078L9.25781 47.8945V48.9492V49.9922L8.58984 50.8125C8.21484 51.2578 6.84375 52.6875 5.51953 54C4.20703 55.3008 3.15235 56.4023 3.19922 56.4375C3.32813 56.5664 4.28906 56.039 5.27344 55.3008C6.5625 54.3398 9.01172 51.9023 9.43359 51.164C9.62109 50.8476 9.85547 50.3203 9.96094 49.9922L10.1602 49.3945L10.7461 49.3359C11.0742 49.3008 11.4258 49.207 11.5313 49.1133C11.9766 48.7383 11.6016 47.9062 10.7344 47.4023C10.4531 47.2383 10.207 47.1094 10.1836 47.1094C10.1602 47.1211 9.9375 47.2969 9.70313 47.5078Z" fill="#333333"/>
<path d="M53.1797 47.3437C52.8984 47.7656 52.0664 49.9101 51.7383 51.0586C51.2578 52.6992 51.3867 54.2226 52.0547 54.7851C52.4883 55.1484 52.9336 55.1601 53.4375 54.8086C54.1523 54.3281 54.3164 53.9882 54.3633 52.8984C54.375 52.3593 54.3516 51.914 54.3047 51.914C54.0586 51.9257 53.9063 52.125 53.8008 52.6171C53.6602 53.2265 53.3906 53.4843 52.9688 53.3789C52.5937 53.2851 52.3828 53.0976 52.2656 52.7929C52.125 52.4414 52.4062 50.9765 52.9688 49.0546C53.4609 47.3554 53.5313 46.8047 53.1797 47.3437Z" fill="#333333"/>
<path d="M146.449 49.125C145.969 49.7578 145.523 50.7304 145.605 50.9765C145.711 51.3164 146.613 52.0547 147.434 52.5C148.277 52.9453 148.254 52.9687 148.84 51.7383C149.227 50.9414 149.273 50.332 148.969 49.9687C148.734 49.6758 147.984 49.1953 147.48 49.0195C147.293 48.9492 147.047 48.8554 146.941 48.8086C146.801 48.7617 146.66 48.8554 146.449 49.125Z" fill="#333333"/>
<path d="M70.0078 50.2265C69.3633 51.0351 69.1055 51.6679 69.0469 52.5937C69 53.3086 69.0234 53.4843 69.2109 53.6836C69.3984 53.8945 69.5273 53.9296 70.1016 53.8711C71.3086 53.7656 71.9531 53.1445 71.9531 52.0898C71.9531 51.3632 71.8125 51.1406 71.1445 50.8125C70.7226 50.5898 70.5586 50.4375 70.4766 50.1445L70.3711 49.7578L70.0078 50.2265ZM70.7226 51.7617C71.2734 52.0195 71.2969 52.4648 70.7695 52.7578C70.4297 52.957 69.832 53.039 69.7031 52.9101C69.5859 52.7929 69.9961 51.5625 70.1484 51.5625C70.2305 51.5625 70.4883 51.6562 70.7226 51.7617Z" fill="#333333"/>
<path d="M30.7031 51.7617C30.0469 53.8828 29.9883 54.5742 30.4219 55.0078C30.8672 55.4531 32.2852 55.0078 32.7891 54.2578C32.9649 53.9883 33.0469 53.6953 33.0469 53.3086C33.0469 52.793 33 52.6875 32.5899 52.2773C32.332 52.0195 32.0039 51.7969 31.8516 51.7734C31.6289 51.75 31.5703 51.6562 31.5469 51.2695C31.5117 50.8477 31.3711 50.6367 31.1484 50.625C31.1016 50.625 30.9024 51.1406 30.7031 51.7617ZM31.8633 53.0391C32.3555 53.4726 32.3555 53.4726 32.1328 53.707C31.9922 53.8359 31.6758 53.9531 31.3594 53.9883C30.9024 54.0469 30.8203 54.0234 30.8203 53.8594C30.8203 53.4375 31.0899 52.6172 31.2188 52.6172C31.3008 52.6172 31.5938 52.8047 31.8633 53.0391Z" fill="#333333"/>
<path d="M141.445 51.6328C141.375 51.7968 141.328 52.0546 141.328 52.2187C141.328 52.4531 141.27 52.4999 141.012 52.4999C140.766 52.4999 140.613 52.3945 140.414 52.0898C140.273 51.8671 140.109 51.6796 140.051 51.6796C139.992 51.6796 139.91 51.9257 139.863 52.2187C139.816 52.5937 139.676 52.8867 139.418 53.1562L139.043 53.5546L138.492 53.2031C138.176 53.0038 137.848 52.8515 137.754 52.8515C137.25 52.8515 136.582 53.3906 134.227 55.6757C131.754 58.0781 131.578 58.2187 129.293 59.7187C127.992 60.5859 126.867 61.3945 126.797 61.5234C126.551 61.9804 127.242 61.7812 128.707 60.9843C131.32 59.5664 133.078 58.2539 134.297 56.8124C135.316 55.6054 137.016 53.9062 137.215 53.9062C137.285 53.9062 137.543 54.0937 137.801 54.3164C138.047 54.539 138.328 54.7265 138.41 54.7265C138.879 54.7265 139.477 54.4335 139.875 54.0351C140.227 53.6601 140.438 53.5546 140.883 53.496C141.738 53.3788 141.949 53.1445 142.008 52.2656C142.043 51.7265 142.02 51.5038 141.902 51.4335C141.645 51.2695 141.563 51.3046 141.445 51.6328Z" fill="#333333"/>
<path d="M111.422 52.582C110.848 53.1914 110.508 54 110.508 54.7383C110.508 55.582 110.578 55.7461 110.977 55.957C111.27 56.1094 111.375 56.1094 111.797 55.957C112.477 55.7227 112.91 55.3828 113.086 54.9609C113.285 54.4922 113.18 53.543 112.91 53.3789C112.219 52.9688 111.973 52.7578 111.937 52.5234C111.891 52.1836 111.785 52.1953 111.422 52.582ZM112.113 53.9648C112.699 54.3164 112.734 54.4922 112.312 54.832C111.961 55.1133 111.094 55.1719 111.094 54.9258C111.094 54.7383 111.48 53.6719 111.551 53.6719C111.574 53.6719 111.832 53.8008 112.113 53.9648Z" fill="#333333"/>
<path d="M81.3164 53.6015C80.5195 53.8828 80.1094 54.1992 79.9336 54.6445C79.8516 54.8906 79.8047 55.1133 79.8281 55.1484C79.8633 55.1836 80.2969 55.0898 80.7891 54.9492C81.2812 54.8086 81.7148 54.7265 81.7617 54.7734C81.7969 54.8086 81.668 55.0664 81.4687 55.3476C80.625 56.4726 80.4609 56.8593 80.4141 57.7148C80.3555 58.6758 80.5312 58.9219 81.293 59.0273C81.8906 59.1094 82.3477 58.9101 83.8125 57.9258C85.7227 56.6601 86.8359 55.4414 86.8359 54.6093C86.8359 54.4804 86.7891 54.375 86.7422 54.375C86.6953 54.375 86.2031 54.75 85.6641 55.2187C83.9883 56.625 82.4062 57.539 81.6211 57.539C81.2109 57.539 81.2344 57.0703 81.668 56.5781C82.582 55.5234 83.1914 54.0234 82.8516 53.6133C82.6758 53.3906 81.9023 53.3906 81.3164 53.6015Z" fill="#333333"/>
<path d="M92.6367 55.4179C87.4101 58.1835 84.4922 60.1523 84.4922 60.8906C84.4922 61.0312 84.5508 61.1953 84.6093 61.2304C84.6797 61.2773 85.664 60.7031 86.8125 59.9648C87.9492 59.2382 89.4726 58.3242 90.1758 57.9492C93.6797 56.0976 95.625 54.7617 95.625 54.1874C95.625 54.0351 95.5898 53.9062 95.5429 53.9179C95.4844 53.9179 94.1836 54.5976 92.6367 55.4179Z" fill="#333333"/>
<path d="M147.879 55.0312C147.27 55.3242 145.992 55.8867 145.02 56.2734C142.898 57.1171 140.777 58.1249 140.426 58.4648C140.074 58.7929 140.063 59.2968 140.402 59.2968C140.531 59.2968 141.258 58.9804 142.008 58.6054C142.758 58.2187 144.141 57.6093 145.078 57.246C147.223 56.4023 149.062 55.5117 149.391 55.1601C149.707 54.832 149.625 54.4921 149.25 54.4921C149.109 54.4921 148.488 54.7382 147.879 55.0312Z" fill="#333333"/>
<path d="M125.684 56.2851C122.871 57.7265 120.07 59.2617 119.508 59.6835C119.004 60.0585 118.781 60.5156 118.969 60.8085C119.133 61.0781 118.781 61.2656 123.164 58.7109C124.676 57.832 126.152 57.0117 126.445 56.8945C127.359 56.4961 127.945 56.1328 128.262 55.7695C128.566 55.3945 128.648 54.9609 128.414 54.9609C128.332 54.9609 127.102 55.5586 125.684 56.2851Z" fill="#333333"/>
<path d="M40.0078 55.3593C39.8906 55.8515 40.043 56.1913 40.7227 56.9765C41.0859 57.3867 41.5664 58.0898 41.8008 58.5585C42.1758 59.3203 42.2109 59.496 42.2109 60.3164C42.1992 60.8203 42.1523 61.3945 42.082 61.6054C42 61.8867 42.0117 62.0156 42.1289 62.1093C42.5156 62.4257 43.0781 60.832 42.9492 59.7773C42.6562 57.2578 41.707 55.5585 40.3477 55.1484C40.1367 55.0781 40.0664 55.1249 40.0078 55.3593Z" fill="#333333"/>
<path d="M20.0508 56.0273C19.7109 56.4726 19.3945 56.8359 19.3594 56.8359C19.3242 56.8359 18.7734 56.5312 18.1289 56.1679C17.0039 55.5234 16.957 55.5117 16.793 55.7343C16.4531 56.1679 15.8203 57.5976 15.8203 57.9023C15.8203 58.3125 16.2891 58.7109 17.4492 59.2851C18.5625 59.8476 18.7266 59.789 19.125 58.7929C19.2773 58.3828 19.4883 58.0546 19.5938 58.0312C19.6992 58.0078 20.2148 58.289 20.7422 58.6523C21.2695 59.0156 21.7852 59.2968 21.8906 59.2734C22.1133 59.2265 23.0859 57.3515 23.0859 56.9531C23.0859 56.5664 22.6406 56.1328 21.8555 55.7343C20.6484 55.1367 20.7422 55.1132 20.0508 56.0273Z" fill="#333333"/>
<path d="M62.6367 58.2187C60.7148 59.3554 58.7695 60.8203 58.1836 61.582C57.8789 61.9804 57.7969 62.3906 58.0078 62.5195C58.1953 62.6367 58.957 62.1679 59.707 61.5C60.0937 61.1484 60.9961 60.4921 61.6992 60.0234C63.2109 59.039 63.9023 58.3945 63.8437 57.9961C63.832 57.8554 63.7617 57.7148 63.6914 57.7031C63.6328 57.6797 63.1523 57.914 62.6367 58.2187Z" fill="#333333"/>
</svg>
