<svg width="167" height="167" viewBox="0 0 167 167" fill="none" xmlns="http://www.w3.org/2000/svg">
<rect width="167" height="167" rx="47" fill="white"/>
<rect x="16.7" y="16.6997" width="133.6" height="133.6" rx="47" fill="#323131"/>
<path d="M16.7 83.5003V103.3C16.7 129.258 37.7426 150.3 63.6999 150.3H83.4999H103.3C129.257 150.3 150.3 129.258 150.3 103.3V83.5003V63.7003C150.3 37.7429 129.257 16.7003 103.3 16.7003H83.4999H63.6999C37.7425 16.7003 16.7 37.7429 16.7 63.7003V83.5003ZM38.4591 33.1547C39.2941 34.7756 39.5397 36.2491 39.687 41.3574L39.7669 43.9133C39.8307 45.9548 38.193 47.6444 36.1505 47.6444V47.6444V47.6444C34.0889 47.6444 32.4176 45.9731 32.4176 43.9115V41.7503C32.4176 35.5615 32.8105 33.8424 34.9226 30.8462C35.9541 29.4218 36.0523 29.3727 36.6908 30.2568C37.0838 30.7971 37.8697 32.0741 38.4591 33.1547ZM133.453 33.4003C134.14 34.7265 134.386 36.5929 134.484 41.3574L134.564 43.9133C134.628 45.9548 132.99 47.6444 130.948 47.6444V47.6444V47.6444C128.886 47.6444 127.215 45.9731 127.215 43.9115V42.045C127.215 36.1509 127.608 34.2844 129.621 31.2882L130.054 30.6132C130.439 30.0125 131.305 29.9807 131.733 30.5515V30.5515C132.176 31.19 133.011 32.4671 133.453 33.4003ZM80.9458 43.0765C79.0302 45.1394 78.4899 46.5147 78.4899 49.2162C78.5391 53.5877 82.0264 56.9768 86.3979 56.9768C89.0011 56.9768 90.3764 56.3874 92.3411 54.4718V54.4718C92.6186 54.1857 93.0814 54.5139 92.9032 54.8703L92.8814 54.9138C91.3097 58.0082 88.4608 59.6782 84.777 59.6782C82.3211 59.6291 81.3879 59.3835 79.7179 58.2538C74.1185 54.5209 74.4132 46.3182 80.3073 42.6835C82.3211 41.4065 82.4194 41.5047 80.9458 43.0765ZM40.4729 51.3774C41.4552 51.7703 41.5044 53.9806 40.522 54.3244C39.8344 54.6191 39.8344 54.7174 40.5711 55.2085C41.0132 55.5524 41.2588 56.2891 41.1605 57.0259C41.0132 58.1556 40.8658 58.2047 36.2979 58.3521C32.4176 58.4503 31.4844 58.3521 30.9441 57.7135C30.4038 57.0259 30.4038 56.7312 30.895 55.8962C31.337 55.1594 31.3861 54.7665 30.9932 54.3735C30.3055 53.6859 30.3055 52.4088 31.0423 51.6721C31.6808 51.0335 39.0485 50.8371 40.4729 51.3774ZM135.761 51.8685C136.203 52.2615 136.547 52.8018 136.547 53.0474C136.547 53.2929 136.203 53.8332 135.761 54.2262C135.368 54.6682 135.221 55.0121 135.516 55.0121C136.301 55.0121 136.694 56.9768 136.056 57.7135C135.614 58.2538 134.288 58.4503 130.898 58.4503C125.79 58.4503 124.661 57.91 125.594 55.8471C125.938 55.1103 125.938 54.4227 125.692 53.8824C125.397 53.3421 125.397 52.7035 125.741 52.065C126.183 51.1809 126.773 51.0827 130.653 51.0827C133.944 51.0827 135.172 51.2791 135.761 51.8685ZM55.6994 61.9868C56.0923 62.6253 56.0923 63.1165 55.7485 63.6568C55.3555 64.2953 55.552 64.7865 56.6326 65.9162C58.3026 67.5371 58.1552 69.3544 56.2888 70.9753C55.3555 71.7612 55.2082 72.105 55.6994 72.8418C56.387 73.8732 55.552 75.3959 54.2749 75.3959C52.9979 75.3959 52.1629 73.9224 52.8997 72.7927C53.3417 72.0559 53.2435 71.7612 52.5067 71.27C51.9664 70.9753 51.2788 70.1403 50.9841 69.5018C50.2964 67.9791 51.2297 65.5232 52.6541 65.0321C53.3908 64.8356 53.4891 64.59 53.0961 64.1971C52.8014 63.9024 52.5558 63.1656 52.5558 62.5762C52.5558 60.8079 54.717 60.415 55.6994 61.9868ZM113.855 61.4956C114.69 62.3306 114.591 63.8532 113.658 64.1971C113.069 64.3935 113.118 64.59 114.051 65.0321C116.703 66.3582 116.802 70.1403 114.198 71.3191C113.118 71.8103 113.069 71.9577 113.707 72.3015C115.426 73.2838 113.953 76.0344 111.988 75.3959C110.908 75.0521 110.662 73.2347 111.546 72.3506C111.939 71.9577 111.841 71.7121 111.104 71.5156C109.876 71.1227 108.845 68.6668 109.238 67.0459C109.385 66.4074 110.122 65.5232 110.858 65.1794C111.644 64.7374 111.939 64.3444 111.546 64.1479C110.809 63.6568 110.858 61.5447 111.644 61.25C112.676 60.8079 113.216 60.8571 113.855 61.4956ZM39.7852 96.0253V126.969C39.7852 129.004 38.1359 130.653 36.1014 130.653V130.653V130.653C34.0669 130.653 32.4176 129.004 32.4176 126.969V96.0253V65.0812C32.4176 63.0467 34.0669 61.3974 36.1014 61.3974V61.3974V61.3974C38.1359 61.3974 39.7852 63.0467 39.7852 65.0812V96.0253ZM134.582 96.0253V126.969C134.582 129.004 132.933 130.653 130.898 130.653V130.653V130.653C128.864 130.653 127.215 129.004 127.215 126.969V96.0253V65.0812C127.215 63.0467 128.864 61.3974 130.898 61.3974V61.3974V61.3974C132.933 61.3974 134.582 63.0467 134.582 65.0812V96.0253ZM90.2291 66.7512C97.3511 71.1227 100.446 74.4627 101.379 78.8832C101.624 80.0621 101.379 80.9462 99.9544 83.2547C98.6773 85.3668 98.2352 86.6929 98.2352 88.2647V88.2647C98.2352 89.4312 97.2896 90.3768 96.1232 90.3768H83.4999H70.1399C69.3804 90.3768 68.7647 89.761 68.7647 89.0015V89.0015C68.7647 86.8894 67.3894 83.2547 66.1123 82.0759C65.0808 81.0935 64.9826 80.7497 65.3755 78.9815C66.5052 73.9715 68.912 71.4174 77.3602 66.1618C82.5667 62.92 83.3526 62.5271 84.2367 63.0674C84.777 63.4112 87.4785 65.0812 90.2291 66.7512ZM58.1061 80.4059C62.7232 83.1074 64.8352 85.6615 64.8352 88.5103V88.5103C64.8352 89.5411 63.9996 90.3768 62.9688 90.3768H54.0294H44.4514C43.7732 90.3768 43.2235 89.827 43.2235 89.1488V89.1488C43.2235 87.5279 44.7461 84.5809 46.367 83.0582C47.4476 82.0268 53.4399 78.1465 53.9802 78.0974C54.0785 78.0974 55.9449 79.1288 58.1061 80.4059ZM116.458 80.3077C120.928 82.96 122.843 85.1703 123.187 88.2156V88.2156C123.318 89.3675 122.417 90.3768 121.258 90.3768H112.479H103.569C102.501 90.3768 101.69 89.4156 101.87 88.3629V88.3629C102.214 86.2509 103.245 84.4335 105.063 82.8127C105.996 81.9285 111.988 78.1465 112.43 78.0974C112.528 78.0974 114.346 79.0797 116.458 80.3077ZM123.285 112.48V126.724C123.285 128.894 121.526 130.653 119.356 130.653V130.653V130.653C117.186 130.653 115.426 128.894 115.426 126.724V125.054C115.426 120.093 115.328 119.307 114.346 117.883C113.707 116.999 112.43 115.82 111.448 115.279V115.279C110.374 114.653 109.031 114.723 108.028 115.457L107.666 115.721C106.585 116.507 105.406 117.686 105.063 118.374C104.719 119.061 104.326 122.107 104.228 125.103L104.203 125.794C104.107 128.505 101.881 130.653 99.1685 130.653V130.653V130.653C96.4829 130.653 94.3058 128.476 94.3058 125.791V124.514C94.3058 117.735 93.7655 115.918 91.0149 113.413C89.0011 111.546 84.6297 109.041 83.4508 109.041C81.6826 109.041 75.8867 112.774 74.4132 114.886C72.7432 117.391 72.252 119.7 72.2029 125.84V125.84C72.2029 128.498 70.0478 130.653 67.3894 130.653H67.3402V130.653C64.6301 130.653 62.4093 128.502 62.3233 125.793L62.2811 124.464L62.2025 121.163C62.1587 119.322 61.3508 117.582 59.9726 116.36V116.36C58.7938 115.279 57.5658 114.444 57.222 114.444C56.1414 114.444 52.5067 117.391 52.0647 118.669C51.7699 119.356 51.5735 122.352 51.5735 125.299V126.478C51.5735 128.784 49.7043 130.653 47.3985 130.653V130.653V130.653C45.0927 130.653 43.2235 128.784 43.2235 126.478V112.48V112.48C43.2235 102.443 51.36 94.3062 61.397 94.3062H83.2544H105.112C115.149 94.3062 123.285 102.443 123.285 112.48V112.48ZM138.021 136.056V136.056C138.021 137.141 137.141 138.021 136.056 138.021H83.2544H30.4529C29.3678 138.021 28.4882 137.141 28.4882 136.056V136.056V136.056C28.4882 134.971 29.3678 134.091 30.4529 134.091H83.2544H136.056C137.141 134.091 138.021 134.971 138.021 136.056V136.056Z" fill="white"/>
<path d="M73.3325 83.3527C72.2519 83.7456 72.5466 86.3489 73.6763 86.6927C75.5919 87.2821 76.9181 84.9736 75.5428 83.5983C74.9043 82.9598 74.364 82.9106 73.3325 83.3527Z" fill="white"/>
<path d="M82.1249 83.5983C80.7496 84.9736 82.0757 87.2821 83.9913 86.6927C84.679 86.4962 84.9737 85.9559 84.9737 84.9736C84.9737 83.2053 83.3528 82.3703 82.1249 83.5983Z" fill="white"/>
<path d="M91.3588 83.7455C90.0817 85.2682 91.9973 87.7732 93.52 86.4961C94.4532 85.7102 94.5515 84.4332 93.7165 83.5982C92.9306 82.8123 92.0956 82.8614 91.3588 83.7455Z" fill="white"/>
</svg>
