<svg width="50" height="50" viewBox="0 0 50 50" fill="none" xmlns="http://www.w3.org/2000/svg">
<path d="M11.4584 13.5417H7.29175V30.2084H11.4584V13.5417Z" fill="#42A4ED"/>
<path d="M42.7084 13.5417H38.5417V30.2084H42.7084V13.5417Z" fill="#42A4ED"/>
<path d="M44.7916 31.25V44.7917H5.20825V31.25C5.20987 30.698 5.42988 30.169 5.82023 29.7787C6.21058 29.3883 6.73955 29.1683 7.29159 29.1667H42.7083C43.2603 29.1683 43.7893 29.3883 44.1796 29.7787C44.57 30.169 44.79 30.698 44.7916 31.25Z" fill="url(#paint0_linear_1_250)"/>
<path d="M13.5417 38.0208C13.5417 36.4583 11.4584 35.4167 10.4167 34.375C9.37508 35.4167 7.29175 36.4583 7.29175 38.0208V44.7917H13.5417V38.0208Z" fill="#0370C8"/>
<path d="M42.7083 38.0208C42.7083 36.4583 40.6249 35.4167 39.5833 34.375C38.5416 35.4167 36.4583 36.4583 36.4583 38.0208V44.7917H42.7083V38.0208Z" fill="#0370C8"/>
<path d="M12.5 11.4584C12.5 9.73247 10.4167 8.33335 9.375 7.29169C8.33333 8.33335 6.25 9.73247 6.25 11.4584C6.25 13.0209 7.64911 13.5417 9.375 13.5417C11.1009 13.5417 12.5 13.0209 12.5 11.4584Z" fill="url(#paint1_radial_1_250)"/>
<path d="M43.75 11.4584C43.75 9.73247 41.6667 8.33335 40.625 7.29169C39.5833 8.33335 37.5 9.73247 37.5 11.4584C37.5 13.0209 38.8991 13.5417 40.625 13.5417C42.3509 13.5417 43.75 13.0209 43.75 11.4584Z" fill="url(#paint2_radial_1_250)"/>
<path d="M35.4166 19.0972C35.4166 13.5416 28.1249 10.4166 24.9999 8.33331C21.8749 10.4166 14.5833 13.5416 14.5833 19.0972C14.5833 23.1337 19.2469 24.4791 24.9999 24.4791C30.7529 24.4791 35.4166 23.1337 35.4166 19.0972Z" fill="url(#paint3_radial_1_250)"/>
<path d="M34.375 21.875H15.625V44.7917H34.375V21.875Z" fill="url(#paint4_linear_1_250)"/>
<path d="M11.4583 12.5H7.29167C6.71637 12.5 6.25 12.9664 6.25 13.5417C6.25 14.117 6.71637 14.5833 7.29167 14.5833H11.4583C12.0336 14.5833 12.5 14.117 12.5 13.5417C12.5 12.9664 12.0336 12.5 11.4583 12.5Z" fill="url(#paint5_linear_1_250)"/>
<path d="M42.7083 12.5H38.5417C37.9664 12.5 37.5 12.9664 37.5 13.5417C37.5 14.117 37.9664 14.5833 38.5417 14.5833H42.7083C43.2836 14.5833 43.75 14.117 43.75 13.5417C43.75 12.9664 43.2836 12.5 42.7083 12.5Z" fill="url(#paint6_linear_1_250)"/>
<path d="M31.25 34.8958C31.25 31.25 26.5625 30.2083 25 28.125C23.4375 30.2083 18.75 31.25 18.75 34.8958V44.7917H31.25V34.8958Z" fill="#42A4ED"/>
<path d="M28.125 38.0208C28.125 36.4583 26.0417 35.4167 25 34.375C23.9583 35.4167 21.875 36.4583 21.875 38.0208V44.7917H28.125V38.0208Z" fill="#0370C8"/>
<path d="M19.7916 23.9583H17.7083V26.0417H19.7916V23.9583Z" fill="#0370C8"/>
<path d="M23.9583 23.9583H21.875V26.0417H23.9583V23.9583Z" fill="#0370C8"/>
<path d="M28.1251 23.9583H26.0417V26.0417H28.1251V23.9583Z" fill="#0370C8"/>
<path d="M32.2916 23.9583H30.2083V26.0417H32.2916V23.9583Z" fill="#0370C8"/>
<path opacity="0.05" d="M35.4167 44.7917V29.1667H34.3751V44.7917H35.4167Z" fill="black"/>
<path opacity="0.07" d="M34.8958 44.7917V29.1667H34.3749V44.7917H34.8958Z" fill="black"/>
<path opacity="0.05" d="M14.5833 29.1667L14.5833 44.7917H15.6249V29.1667H14.5833Z" fill="black"/>
<path opacity="0.07" d="M15.1042 29.1667L15.1042 44.7917H15.6251L15.6251 29.1667H15.1042Z" fill="black"/>
<defs>
<linearGradient id="paint0_linear_1_250" x1="24.9999" y1="16.7115" x2="24.9999" y2="39.3354" gradientUnits="userSpaceOnUse">
<stop stop-color="#A8E2F7"/>
<stop offset="1" stop-color="#47C1FF"/>
</linearGradient>
<radialGradient id="paint1_radial_1_250" cx="0" cy="0" r="1" gradientUnits="userSpaceOnUse" gradientTransform="translate(6.975 6.79377) scale(9.86562)">
<stop stop-color="#2AA4F4"/>
<stop offset="1" stop-color="#007AD9"/>
</radialGradient>
<radialGradient id="paint2_radial_1_250" cx="0" cy="0" r="1" gradientUnits="userSpaceOnUse" gradientTransform="translate(266.85 48.0542) scale(59.1938)">
<stop stop-color="#2AA4F4"/>
<stop offset="1" stop-color="#007AD9"/>
</radialGradient>
<radialGradient id="paint3_radial_1_250" cx="0" cy="0" r="1" gradientUnits="userSpaceOnUse" gradientTransform="translate(423.542 164.706) scale(391.937 303.752)">
<stop stop-color="#2AA4F4"/>
<stop offset="1" stop-color="#007AD9"/>
</radialGradient>
<linearGradient id="paint4_linear_1_250" x1="465.625" y1="458.277" x2="465.625" y2="1227.09" gradientUnits="userSpaceOnUse">
<stop stop-color="#A8E2F7"/>
<stop offset="1" stop-color="#47C1FF"/>
</linearGradient>
<linearGradient id="paint5_linear_1_250" x1="62.5" y1="29.3479" x2="62.5" y2="50.2875" gradientUnits="userSpaceOnUse">
<stop stop-color="#A8E2F7"/>
<stop offset="1" stop-color="#47C1FF"/>
</linearGradient>
<linearGradient id="paint6_linear_1_250" x1="281.25" y1="29.3479" x2="281.25" y2="50.2875" gradientUnits="userSpaceOnUse">
<stop stop-color="#A8E2F7"/>
<stop offset="1" stop-color="#47C1FF"/>
</linearGradient>
</defs>
</svg>
