<svg width="50" height="50" viewBox="0 0 50 50" fill="none" xmlns="http://www.w3.org/2000/svg">
<path d="M45.8334 25C45.8334 36.5063 36.5063 45.8333 25.0001 45.8333C13.4938 45.8333 4.16675 36.5063 4.16675 25C4.16675 13.4938 13.4938 4.16669 25.0001 4.16669C36.5063 4.16669 45.8334 13.4938 45.8334 25Z" fill="#2D77B1"/>
<path d="M41.6666 25C41.6666 34.2052 34.2051 41.6666 24.9999 41.6666C15.7947 41.6666 8.33325 34.2052 8.33325 25C8.33325 15.7948 15.7947 8.33331 24.9999 8.33331C34.2051 8.33331 41.6666 15.7948 41.6666 25Z" fill="#EEEEEE"/>
<path d="M14.6885 35.3115L26.4729 26.4729L35.3114 14.6885L23.527 23.5271L14.6885 35.3115Z" fill="#D9D9D9"/>
<path d="M25.0001 39.5823L27.0834 25L25.0001 10.4177L22.9167 25L25.0001 39.5823Z" fill="#D9D9D9"/>
<path d="M35.3114 35.3115L26.4729 23.5271L14.6885 14.6885L23.526 26.4729L35.3114 35.3115Z" fill="#D9D9D9"/>
<path d="M10.4177 25L25 28.125V21.875L10.4177 25Z" fill="#3F51B5"/>
<path d="M25 21.875V28.125L39.5823 25L25 21.875Z" fill="#FF3D00"/>
<path d="M26.1052 26.1052C25.4948 26.7156 24.5062 26.7156 23.8958 26.1052C23.2854 25.4948 23.2854 24.5063 23.8958 23.8958C24.5062 23.2854 25.4958 23.2865 26.1052 23.8958C26.7156 24.5063 26.7156 25.4938 26.1052 26.1052Z" fill="white"/>
</svg>
