<svg width="50" height="50" viewBox="0 0 50 50" fill="none" xmlns="http://www.w3.org/2000/svg">
<path d="M37.4999 37.5H13.1322C11.7458 37.5 11.4583 38.6656 11.4583 40.1042C11.4583 41.5437 11.7458 42.7094 13.1322 42.7094L37.4999 42.7083V37.5Z" fill="#FFE0B2"/>
<path d="M10.4167 37.5H37.5001V39.5834H10.4167V37.5Z" fill="#E0B990"/>
<path d="M40.625 31.25H37.5V42.7084C37.5 42.7084 38.5417 42.7084 39.5833 42.7084C40.625 42.7084 40.625 41.6667 40.625 41.6667V31.25Z" fill="#B71C1C"/>
<path d="M39.5833 42.7083C38.5417 42.7083 37.5 42.7083 37.5 42.7083V44.7917C37.6958 44.7917 38.0208 44.7917 38.5417 44.7917C40.625 44.7917 40.625 42.7083 40.625 42.7083V41.6667C40.625 41.6667 40.625 42.7083 39.5833 42.7083ZM10.4167 37.5H39.5833C40.1594 37.5 40.625 37.0344 40.625 36.4594V5.20939C40.625 4.6344 40.1594 4.16773 39.5833 4.16773L14.5833 4.16669C12.2844 4.16669 9.56667 5.27919 9.39167 10.4177H9.375C9.375 10.4177 9.375 32.1083 9.375 40.625L10.4167 37.5Z" fill="#E53935"/>
<path d="M37.5 42.7083H13.1323C11.7448 42.7083 11.4583 41.5479 11.4583 40.1031C11.4583 38.6646 11.7458 37.499 13.1323 37.499H37.5V35.4156H13.1323C12.0031 35.4156 9.375 35.8719 9.375 40.1031C9.375 44.3354 12.0031 44.7917 13.1323 44.7917L37.5 44.7906V42.7083Z" fill="#E53935"/>
<path d="M35.4166 9.37502V32.2917H16.6666V9.37502H35.4166ZM37.4999 7.29169H14.5833V34.375H37.4999V7.29169Z" fill="#FFC107"/>
<path d="M21.8103 16.6021H30.1113V24.9354H21.8103V16.6021Z" fill="#FFC107"/>
<path d="M28.0926 26.0417C28.0926 26.6178 27.627 27.0834 27.051 27.0834H24.9999C24.4249 27.0834 23.9583 26.6178 23.9583 26.0417V15.625C23.9583 15.049 24.4249 14.5834 24.9999 14.5834H27.051C27.627 14.5834 28.0926 15.049 28.0926 15.625V26.0417Z" fill="#FFC107"/>
<path d="M32.2634 21.875C32.2634 22.4511 31.7998 22.9167 31.2269 22.9167H20.8332C20.2602 22.9167 19.7957 22.4511 19.7957 21.875L19.8238 19.7917C19.8238 19.2157 20.2884 18.75 20.8613 18.75H31.254C31.8279 18.75 32.2915 19.2157 32.2915 19.7917L32.2634 21.875ZM23.9582 12.4979C23.9582 11.3479 26.0415 10.4146 26.0415 10.4146C26.0415 10.4146 28.1248 11.3479 28.1248 12.4979C28.1248 13.6479 27.1915 13.5396 26.0415 13.5396C24.8915 13.5396 23.9582 13.649 23.9582 12.4979ZM23.9582 29.1667C23.9582 30.3167 26.0415 31.25 26.0415 31.25C26.0415 31.25 28.1248 30.3167 28.1248 29.1667C28.1248 28.0167 27.1915 28.125 26.0415 28.125C24.8915 28.125 23.9582 28.0167 23.9582 29.1667Z" fill="#FFC107"/>
</svg>
