<svg width="50" height="50" viewBox="0 0 50 50" fill="none" xmlns="http://www.w3.org/2000/svg">
<path d="M15.6249 41.6667H39.5832L45.8332 47.9167V26.0417C45.8332 23.75 43.9582 21.875 41.6666 21.875H15.6249C13.3333 21.875 11.4583 23.75 11.4583 26.0417V37.5C11.4583 39.7917 13.3333 41.6667 15.6249 41.6667Z" fill="#273892"/>
<path d="M30.0001 34.1667H26.2501L25.5209 36.3542H23.2292L27.0834 25.9375H29.0626L32.9167 36.3542H30.6251L30.0001 34.1667ZM26.7709 32.5H29.3751L28.1251 28.5417L26.7709 32.5Z" fill="white"/>
<path d="M34.3751 26.0417H10.4167L4.16675 32.2917V8.33335C4.16675 6.04169 6.04175 4.16669 8.33341 4.16669H34.3751C36.6667 4.16669 38.5417 6.04169 38.5417 8.33335V21.875C38.5417 24.1667 36.6667 26.0417 34.3751 26.0417Z" fill="#FFB74D" fill-opacity="0.961"/>
<path d="M26.4584 14.7916C26.4584 15.8333 26.2501 16.6666 25.9376 17.3958C25.6251 18.125 25.2084 18.75 24.5834 19.1666L26.3542 20.5208L25.0001 21.7708L22.7084 20C22.5001 20 22.1876 20.1041 21.8751 20.1041C21.2501 20.1041 20.6251 20 20.0001 19.7916C19.4792 19.5833 18.9584 19.1666 18.5417 18.75C18.1251 18.3333 17.8126 17.7083 17.6042 17.0833C17.3959 16.4583 17.2917 15.7291 17.2917 14.8958V14.4791C17.2917 13.6458 17.3959 12.9166 17.6042 12.2916C17.8126 11.6666 18.1251 11.0416 18.5417 10.625C18.9584 10.2083 19.3751 9.79165 20.0001 9.58331C20.5209 9.37498 21.1459 9.27081 21.8751 9.27081C22.5001 9.27081 23.1251 9.37498 23.7501 9.58331C24.2709 9.79165 24.7917 10.2083 25.2084 10.625C25.6251 11.0416 25.9376 11.6666 26.1459 12.2916C26.3542 12.9166 26.4584 13.6458 26.4584 14.4791V14.7916ZM24.1667 14.2708C24.1667 13.125 23.9584 12.2916 23.5417 11.7708C23.1251 11.1458 22.6042 10.9375 21.8751 10.9375C21.1459 10.9375 20.5209 11.25 20.2084 11.7708C19.7917 12.3958 19.5834 13.2291 19.5834 14.2708V14.7916C19.5834 15.3125 19.6876 15.8333 19.7917 16.25C19.8959 16.6666 20.0001 17.0833 20.2084 17.2916C20.4167 17.6041 20.6251 17.8125 20.9376 17.9166C21.2501 18.0208 21.5626 18.125 21.8751 18.125C22.6042 18.125 23.2292 17.8125 23.5417 17.2916C23.9584 16.6666 24.1667 15.8333 24.1667 14.6875V14.2708Z" fill="white"/>
</svg>
