<svg width="50" height="50" viewBox="0 0 50 50" fill="none" xmlns="http://www.w3.org/2000/svg">
<path d="M32.2916 25C25.8333 25 20.8333 20 20.8333 13.5417C20.8333 9.68752 22.3958 6.35419 25.3124 4.16669C19.2708 5.10419 14.5833 10.3125 14.5833 16.5625C14.5833 23.5417 20.2083 29.1667 27.1874 29.1667C31.2499 29.1667 34.7916 27.2917 37.0833 24.375C35.5208 25 34.0624 25 32.2916 25Z" fill="#ACACAC"/>
<path d="M26.9792 41.5625L24.7917 36.7708L32.8126 33.0208C34.1667 32.3958 35.6251 33.0208 36.2501 34.2708C36.8751 35.625 36.2501 37.1875 35.0001 37.7083L26.9792 41.5625Z" fill="#E89531"/>
<path d="M31.7708 41.9792L29.5833 37.1875L37.6041 33.4375C38.9583 32.8125 40.4166 33.4375 41.0416 34.6875C41.6666 36.0417 41.0416 37.6042 39.7916 38.125L31.7708 41.9792Z" fill="#E89531"/>
<path d="M27.8125 41.25C28.125 41.3542 30.625 42.2917 31.5625 39.8959C31.6667 39.6875 31.6667 39.4792 31.7708 39.2709L33.8542 38.3334C33.9583 39.1667 33.75 40 33.5417 40.7292C32.1875 44.2708 28.75 43.9583 27.1875 43.3334L17.5 39.5834L18.125 37.6042L27.8125 41.25Z" fill="#E89531"/>
<path d="M18.1249 39.375C17.6041 39.5833 16.9791 39.375 16.7708 38.8542C16.5624 38.3333 16.7708 37.7083 17.2916 37.5C17.8124 37.2917 18.4374 37.5 18.6457 38.0208C18.8541 38.5417 18.6457 39.1667 18.1249 39.375Z" fill="#E89531"/>
<path d="M45.6251 36.0416C45.1042 34.6875 43.5417 34.0625 42.1876 34.6875L33.8542 38.3333C33.9584 39.1666 33.7501 40 33.5417 40.7291C32.1876 44.2708 28.7501 43.9583 27.1876 43.3333L17.5001 39.5833C17.1876 39.4791 16.9792 39.2708 16.8751 38.9583C16.6667 38.4375 16.8751 37.8125 17.3959 37.6041C17.6042 37.5 17.9167 37.5 18.1251 37.6041H18.2292L27.9167 41.3541C28.2292 41.4583 30.7292 42.3958 31.6667 40C31.7709 39.7916 31.7709 39.5833 31.8751 39.375C32.0834 37.9166 30.8334 37.0833 30.1042 36.7708L17.7084 31.875C13.5417 30 4.16675 34.1666 4.16675 34.1666L7.70841 42.8125L11.5626 41.1458L25.2084 46.6666C25.9376 46.9791 26.7709 46.9791 27.5001 46.7708C27.6042 46.7708 27.8126 46.6666 27.9167 46.6666L44.1667 39.5833C45.6251 38.9583 46.1459 37.3958 45.6251 36.0416Z" fill="#FFB74D" fill-opacity="0.961"/>
<path d="M31.25 16.1458L34.2708 17.7083L33.6458 14.2708L36.1458 11.875L32.8125 11.4583L31.25 8.33331L29.6875 11.4583L26.25 11.9791L28.75 14.375L28.2292 17.7083L31.25 16.1458Z" fill="#FFB74D" fill-opacity="0.961"/>
</svg>
