<svg width="55" height="55" viewBox="0 0 55 55" fill="none" xmlns="http://www.w3.org/2000/svg">
<path d="M45.3749 31.1667C45.4895 30.3646 45.6041 29.5625 45.6041 28.6459C45.6041 27.7292 45.4895 26.9271 45.3749 26.125L50.5311 22.4584C50.9895 22.1146 51.2186 21.4271 50.8749 20.8542L45.8332 12.375C45.4895 11.8021 44.9166 11.5729 44.3436 11.9167L38.6145 14.5521C37.2395 13.5209 35.8645 12.7188 34.2603 12.0313L33.6874 5.72919C33.5728 5.15627 33.1145 4.69794 32.5416 4.69794H22.6874C22.1145 4.69794 21.5416 5.15627 21.5416 5.72919L20.9686 12.0313C19.3645 12.7188 17.8749 13.5209 16.6145 14.5521L10.8853 11.9167C10.3124 11.6875 9.6249 11.9167 9.39573 12.375L4.46865 20.8542C4.1249 21.4271 4.35407 22.1146 4.8124 22.4584L9.96865 26.125C9.85407 26.9271 9.73948 27.7292 9.73948 28.6459C9.73948 29.5625 9.85407 30.3646 9.96865 31.1667L4.58323 34.8334C4.1249 35.1771 3.89573 35.8646 4.23948 36.4375L9.16657 44.9167C9.51032 45.4896 10.0832 45.7188 10.6561 45.375L16.3853 42.7396C17.7603 43.7709 19.1353 44.5729 20.7395 45.2604L21.3124 51.5625C21.427 52.1354 21.8853 52.5938 22.4582 52.5938H32.3124C32.8853 52.5938 33.4582 52.1354 33.4582 51.5625L34.0311 45.2604C35.6353 44.5729 37.1249 43.7709 38.3853 42.7396L44.1145 45.375C44.6874 45.6042 45.3749 45.375 45.6041 44.9167L50.5311 36.4375C50.8749 35.8646 50.6457 35.1771 50.1874 34.8334L45.3749 31.1667ZM27.4999 40.1042C21.1978 40.1042 16.0416 34.9479 16.0416 28.6459C16.0416 22.3438 21.1978 17.1875 27.4999 17.1875C33.802 17.1875 38.9582 22.3438 38.9582 28.6459C38.9582 34.9479 33.802 40.1042 27.4999 40.1042Z" fill="#ACACAC"/>
<path d="M27.5 14.8958C19.9375 14.8958 13.75 21.0833 13.75 28.6458C13.75 36.2083 19.9375 42.3958 27.5 42.3958C35.0625 42.3958 41.25 36.2083 41.25 28.6458C41.25 21.0833 35.0625 14.8958 27.5 14.8958ZM27.5 34.375C24.2917 34.375 21.7708 31.8541 21.7708 28.6458C21.7708 25.4375 24.2917 22.9166 27.5 22.9166C30.7083 22.9166 33.2292 25.4375 33.2292 28.6458C33.2292 31.8541 30.7083 34.375 27.5 34.375Z" fill="#949494"/>
</svg>
